<svg id="Capa_1" data-name="Capa 1" xmlns="http://www.w3.org/2000/svg" viewBox="0 0 146 139.05"><defs><style>.cls-1{opacity:0.5;}.cls-2{fill:#fc0;}.cls-3{fill:none;stroke:#363795;stroke-miterlimit:10;stroke-width:2.19px;}</style></defs><title>Riduit_cómo funciona_</title><g class="cls-1"><path class="cls-2" d="M47.63,129.49a11.69,11.69,0,0,1-11.69-11.42l0-1.64,1.45-9.72c-13.47-3.65-26.13-15.27-26.13-30.09v-39c0-17,14.87-31.29,32.47-31.29h63.08A31.31,31.31,0,0,1,138,37.56v39a31.31,31.31,0,0,1-31.27,31.29h-27L54.53,127.23a11.6,11.6,0,0,1-6.9,2.25M43.7,19.59c-10.21,0-19.16,8.4-19.16,18v39c0,7.84,9,17.39,20.69,17.95l7.35.35L49.7,114.16,75.27,94.58h31.51a18,18,0,0,0,18-18v-39a18,18,0,0,0-18-18Z"/></g><path class="cls-3" d="M45.44,131.68a11.69,11.69,0,0,1-11.69-11.42l0-1.64,1.45-9.72C21.7,105.24,9,93.62,9,78.8v-39C9,22.8,23.92,8.47,41.52,8.47h63.08a31.31,31.31,0,0,1,31.27,31.29v39a31.31,31.31,0,0,1-31.27,31.29h-27L52.34,129.42A11.6,11.6,0,0,1,45.44,131.68ZM41.52,21.78c-10.21,0-19.16,8.4-19.16,18v39c0,7.84,9,17.39,20.69,17.95l7.35.35-2.88,19.25L73.08,96.77h31.51a18,18,0,0,0,18-18v-39a18,18,0,0,0-18-18Z"/></svg>